<svg width="25" height="24" viewBox="0 0 25 24" fill="none" xmlns="http://www.w3.org/2000/svg">
<path d="M5.17676 1H2.17676C1.91154 1 1.65719 1.10536 1.46965 1.29289C1.28211 1.48043 1.17676 1.73478 1.17676 2V22C1.17676 22.2652 1.28211 22.5196 1.46965 22.7071C1.65719 22.8946 1.91154 23 2.17676 23H5.17676V1Z" fill="#D6B1FF"/>
<path d="M7.17676 23H17.1768V1H7.17676V23ZM12.1768 19C11.9115 19 11.6572 18.8946 11.4697 18.7071C11.2821 18.5196 11.1768 18.2652 11.1768 18C11.1768 17.7348 11.2821 17.4804 11.4697 17.2929C11.6572 17.1054 11.9115 17 12.1768 17C12.442 17 12.6963 17.1054 12.8839 17.2929C13.0714 17.4804 13.1768 17.7348 13.1768 18C13.1768 18.2652 13.0714 18.5196 12.8839 18.7071C12.6963 18.8946 12.442 19 12.1768 19ZM12.1768 5C12.442 5 12.6963 5.10536 12.8839 5.29289C13.0714 5.48043 13.1768 5.73478 13.1768 6C13.1768 6.26522 13.0714 6.51957 12.8839 6.70711C12.6963 6.89464 12.442 7 12.1768 7C11.9115 7 11.6572 6.89464 11.4697 6.70711C11.2821 6.51957 11.1768 6.26522 11.1768 6C11.1768 5.73478 11.2821 5.48043 11.4697 5.29289C11.6572 5.10536 11.9115 5 12.1768 5ZM12.1768 11C12.442 11 12.6963 11.1054 12.8839 11.2929C13.0714 11.4804 13.1768 11.7348 13.1768 12C13.1768 12.2652 13.0714 12.5196 12.8839 12.7071C12.6963 12.8946 12.442 13 12.1768 13C11.9115 13 11.6572 12.8946 11.4697 12.7071C11.2821 12.5196 11.1768 12.2652 11.1768 12C11.1768 11.7348 11.2821 11.4804 11.4697 11.2929C11.6572 11.1054 11.9115 11 12.1768 11Z" fill="#F03E3D"/>
<path d="M22.1768 1H19.1768V23H22.1768C22.442 23 22.6963 22.8946 22.8839 22.7071C23.0714 22.5196 23.1768 22.2652 23.1768 22V2C23.1768 1.73478 23.0714 1.48043 22.8839 1.29289C22.6963 1.10536 22.442 1 22.1768 1Z" fill="#F03E3D"/>
</svg>
