<svg width="19" height="19" viewBox="0 0 19 19" fill="none" xmlns="http://www.w3.org/2000/svg">
<path d="M4.14225 11.3044L2.77557 17.2224C2.73325 17.4016 2.74596 17.5894 2.81203 17.7613C2.8781 17.9331 2.99446 18.0811 3.14593 18.1858C3.29739 18.2905 3.4769 18.3471 3.66103 18.3482C3.84516 18.3493 4.02533 18.2948 4.17803 18.1919L9.17237 14.8624L14.1667 18.1919C14.3229 18.2957 14.5072 18.3491 14.6947 18.345C14.8822 18.3408 15.0639 18.2794 15.2155 18.1689C15.367 18.0584 15.4811 17.9042 15.5423 17.727C15.6036 17.5497 15.6091 17.358 15.5581 17.1775L13.8805 11.3072L18.0411 7.56302C18.1744 7.44304 18.2695 7.28663 18.3148 7.11313C18.3601 6.93964 18.3536 6.75667 18.296 6.58685C18.2384 6.41703 18.1323 6.26782 17.9908 6.15766C17.8494 6.0475 17.6787 5.98123 17.4999 5.96704L12.2708 5.55061L10.008 0.541597C9.93581 0.380306 9.81852 0.243344 9.67025 0.147241C9.52198 0.0511377 9.34906 0 9.17237 0C8.99567 0 8.82275 0.0511377 8.67448 0.147241C8.52621 0.243344 8.40892 0.380306 8.33677 0.541597L6.07395 5.55061L0.844797 5.96612C0.669105 5.98004 0.501144 6.04428 0.361006 6.15115C0.220868 6.25803 0.114488 6.40302 0.0545932 6.56877C-0.00530196 6.73452 -0.0161763 6.91402 0.0232713 7.08579C0.062719 7.25756 0.150818 7.41433 0.277029 7.53734L4.14225 11.3044ZM6.75912 7.33647C6.92284 7.32357 7.08008 7.26686 7.21435 7.1723C7.34862 7.07773 7.45497 6.94878 7.52226 6.79897L9.17237 3.14746L10.8225 6.79897C10.8898 6.94878 10.9961 7.07773 11.1304 7.1723C11.2647 7.26686 11.4219 7.32357 11.5856 7.33647L15.2289 7.6254L12.2286 10.3257C11.9681 10.5605 11.8644 10.9219 11.9598 11.2595L13.1091 15.2815L9.68235 12.9967C9.53194 12.8958 9.35489 12.8419 9.17374 12.8419C8.99259 12.8419 8.81555 12.8958 8.66513 12.9967L5.08425 15.3843L6.04735 11.2145C6.08266 11.0612 6.07792 10.9013 6.03359 10.7503C5.98925 10.5993 5.90681 10.4623 5.79419 10.3523L3.00763 7.63548L6.75912 7.33647Z" fill="#F3CD03"/>
</svg>
