<svg width="72" height="72" viewBox="0 0 72 72" fill="none" xmlns="http://www.w3.org/2000/svg">
<g filter="url(#filter0_b_42_148)">
<path d="M37.1403 7.34107L16.6853 13.1889C9.23117 15.3199 6.13935 21.033 8.13649 28.9854L13.6117 50.787C15.6088 58.7394 20.9637 62.0376 28.4178 59.9066L48.8729 54.0588C56.327 51.9277 59.3994 46.2202 57.4022 38.2678L51.927 16.4662C49.9299 8.51386 44.5945 5.21004 37.1403 7.34107Z" fill="url(#paint0_linear_42_148)"/>
</g>
<g opacity="0.5" filter="url(#filter1_f_42_148)">
<path d="M47.2195 35.9124L43.5049 20.8997C42.1575 15.4542 38.7853 13.0126 34.3514 14.2615L19.334 18.4913C14.8273 19.7607 13.0822 23.6437 14.4296 29.0892L18.1442 44.1019C19.5133 49.6351 22.8051 52.0036 27.3118 50.7343L42.3292 46.5044C46.7632 45.2555 48.5885 41.4456 47.2195 35.9124Z" fill="#11B5E4"/>
</g>
<g filter="url(#filter2_b_42_148)">
<mask id="path-3-outside-1_42_148" maskUnits="userSpaceOnUse" x="20.6602" y="16.626" width="48" height="51" fill="black">
<rect fill="white" x="20.6602" y="16.626" width="48" height="51"/>
<path d="M54.9231 17.626H33.7484C26.0321 17.626 21.6602 22.2906 21.6602 30.5235V53.0942C21.6602 61.3271 26.0321 65.9917 33.7484 65.9917H54.9231C62.6394 65.9917 66.9912 61.3271 66.9912 53.0942V30.5235C66.9912 22.2906 62.6394 17.626 54.9231 17.626"/>
</mask>
<path d="M54.9231 17.626H33.7484C26.0321 17.626 21.6602 22.2906 21.6602 30.5235V53.0942C21.6602 61.3271 26.0321 65.9917 33.7484 65.9917H54.9231C62.6394 65.9917 66.9912 61.3271 66.9912 53.0942V30.5235C66.9912 22.2906 62.6394 17.626 54.9231 17.626" fill="#00ACDD"/>
<path d="M54.9231 18.626C55.4754 18.626 55.9231 18.1783 55.9231 17.626C55.9231 17.0737 55.4754 16.626 54.9231 16.626V18.626ZM54.9231 16.626C54.3708 16.626 53.9231 17.0737 53.9231 17.626C53.9231 18.1783 54.3708 18.626 54.9231 18.626V16.626ZM54.9231 16.626H33.7484V18.626H54.9231V16.626ZM33.7484 16.626C29.6858 16.626 26.3718 17.8595 24.081 20.3035C21.7993 22.7381 20.6602 26.2381 20.6602 30.5235H22.6602C22.6602 26.576 23.707 23.6272 25.5403 21.6712C27.3646 19.7248 30.0947 18.626 33.7484 18.626V16.626ZM20.6602 30.5235V53.0942H22.6602V30.5235H20.6602ZM20.6602 53.0942C20.6602 57.3796 21.7993 60.8796 24.081 63.3141C26.3718 65.7582 29.6858 66.9917 33.7484 66.9917V64.9917C30.0947 64.9917 27.3646 63.8929 25.5403 61.9464C23.707 59.9904 22.6602 57.0417 22.6602 53.0942H20.6602ZM33.7484 66.9917H54.9231V64.9917H33.7484V66.9917ZM54.9231 66.9917C58.9858 66.9917 62.2954 65.7581 64.5812 63.3132C66.8578 60.8783 67.9912 57.3784 67.9912 53.0942H65.9912C65.9912 57.0428 64.9488 59.9917 63.1203 61.9473C61.3012 63.893 58.5767 64.9917 54.9231 64.9917V66.9917ZM67.9912 53.0942V30.5235H65.9912V53.0942H67.9912ZM67.9912 30.5235C67.9912 26.2392 66.8578 22.7393 64.5812 20.3044C62.2954 17.8596 58.9858 16.626 54.9231 16.626V18.626C58.5767 18.626 61.3012 19.7247 63.1203 21.6703C64.9488 23.626 65.9912 26.5748 65.9912 30.5235H67.9912Z" fill="url(#paint1_linear_42_148)" mask="url(#path-3-outside-1_42_148)"/>
</g>
<g filter="url(#filter3_bd_42_148)">
<mask id="path-5-inside-2_42_148" fill="white">
<path fill-rule="evenodd" clip-rule="evenodd" d="M44.4047 27.5142C43.3772 27.5142 42.531 28.417 42.531 29.5348V54.0831C42.531 55.1794 43.3772 56.0822 44.4047 56.0822C45.4524 56.0822 46.2985 55.1794 46.2985 54.0831V29.5348C46.2985 28.417 45.4524 27.5142 44.4047 27.5142ZM33.8278 35.4468C32.8003 35.4468 31.9541 36.3497 31.9541 37.4675V54.0838C31.9541 55.1801 32.8003 56.0829 33.8278 56.0829C34.8754 56.0829 35.7216 55.1801 35.7216 54.0838V37.4675C35.7216 36.3497 34.8754 35.4468 33.8278 35.4468ZM52.9478 46.2376C52.9478 45.1198 53.794 44.217 54.8416 44.217C55.8691 44.217 56.7153 45.1198 56.7153 46.2376V54.0836C56.7153 55.1799 55.8691 56.0827 54.8215 56.0827C53.794 56.0827 52.9478 55.1799 52.9478 54.0836V46.2376Z"/>
</mask>
<path fill-rule="evenodd" clip-rule="evenodd" d="M44.4047 27.5142C43.3772 27.5142 42.531 28.417 42.531 29.5348V54.0831C42.531 55.1794 43.3772 56.0822 44.4047 56.0822C45.4524 56.0822 46.2985 55.1794 46.2985 54.0831V29.5348C46.2985 28.417 45.4524 27.5142 44.4047 27.5142ZM33.8278 35.4468C32.8003 35.4468 31.9541 36.3497 31.9541 37.4675V54.0838C31.9541 55.1801 32.8003 56.0829 33.8278 56.0829C34.8754 56.0829 35.7216 55.1801 35.7216 54.0838V37.4675C35.7216 36.3497 34.8754 35.4468 33.8278 35.4468ZM52.9478 46.2376C52.9478 45.1198 53.794 44.217 54.8416 44.217C55.8691 44.217 56.7153 45.1198 56.7153 46.2376V54.0836C56.7153 55.1799 55.8691 56.0827 54.8215 56.0827C53.794 56.0827 52.9478 55.1799 52.9478 54.0836V46.2376Z" fill="url(#paint2_linear_42_148)"/>
<path d="M42.931 29.5348C42.931 28.6102 43.6248 27.9142 44.4047 27.9142V27.1142C43.1296 27.1142 42.131 28.2238 42.131 29.5348H42.931ZM42.931 54.0831V29.5348H42.131V54.0831H42.931ZM44.4047 55.6822C43.6221 55.6822 42.931 54.9833 42.931 54.0831H42.131C42.131 55.3755 43.1323 56.4822 44.4047 56.4822V55.6822ZM45.8985 54.0831C45.8985 54.9804 45.2101 55.6822 44.4047 55.6822V56.4822C45.6946 56.4822 46.6985 55.3783 46.6985 54.0831H45.8985ZM45.8985 29.5348V54.0831H46.6985V29.5348H45.8985ZM44.4047 27.9142C45.2074 27.9142 45.8985 28.6131 45.8985 29.5348H46.6985C46.6985 28.2209 45.6973 27.1142 44.4047 27.1142V27.9142ZM32.3541 37.4675C32.3541 36.5429 33.0479 35.8468 33.8278 35.8468V35.0468C32.5527 35.0468 31.5541 36.1564 31.5541 37.4675H32.3541ZM32.3541 54.0838V37.4675H31.5541V54.0838H32.3541ZM33.8278 55.6829C33.0452 55.6829 32.3541 54.984 32.3541 54.0838H31.5541C31.5541 55.3762 32.5553 56.4829 33.8278 56.4829V55.6829ZM35.3216 54.0838C35.3216 54.9811 34.6332 55.6829 33.8278 55.6829V56.4829C35.1177 56.4829 36.1216 55.379 36.1216 54.0838H35.3216ZM35.3216 37.4675V54.0838H36.1216V37.4675H35.3216ZM33.8278 35.8468C34.6305 35.8468 35.3216 36.5458 35.3216 37.4675H36.1216C36.1216 36.1536 35.1204 35.0468 33.8278 35.0468V35.8468ZM54.8416 43.817C53.549 43.817 52.5478 44.9237 52.5478 46.2376H53.3478C53.3478 45.3159 54.0389 44.617 54.8416 44.617V43.817ZM57.1153 46.2376C57.1153 44.9266 56.1167 43.817 54.8416 43.817V44.617C55.6215 44.617 56.3153 45.313 56.3153 46.2376H57.1153ZM57.1153 54.0836V46.2376H56.3153V54.0836H57.1153ZM54.8215 56.4827C56.1114 56.4827 57.1153 55.3789 57.1153 54.0836H56.3153C56.3153 54.9809 55.6269 55.6827 54.8215 55.6827V56.4827ZM52.5478 54.0836C52.5478 55.376 53.549 56.4827 54.8215 56.4827V55.6827C54.0389 55.6827 53.3478 54.9838 53.3478 54.0836H52.5478ZM52.5478 46.2376V54.0836H53.3478V46.2376H52.5478Z" fill="url(#paint3_linear_42_148)" mask="url(#path-5-inside-2_42_148)"/>
</g>
<defs>
<filter id="filter0_b_42_148" x="-5.45703" y="-6.2915" width="76.4551" height="79.8315" filterUnits="userSpaceOnUse" color-interpolation-filters="sRGB">
<feFlood flood-opacity="0" result="BackgroundImageFix"/>
<feGaussianBlur in="BackgroundImage" stdDeviation="6.5"/>
<feComposite in2="SourceAlpha" operator="in" result="effect1_backgroundBlur_42_148"/>
<feBlend mode="normal" in="SourceGraphic" in2="effect1_backgroundBlur_42_148" result="shape"/>
</filter>
<filter id="filter1_f_42_148" x="0.986328" y="0.940918" width="59.6787" height="63.1279" filterUnits="userSpaceOnUse" color-interpolation-filters="sRGB">
<feFlood flood-opacity="0" result="BackgroundImageFix"/>
<feBlend mode="normal" in="SourceGraphic" in2="BackgroundImageFix" result="shape"/>
<feGaussianBlur stdDeviation="6.5" result="effect1_foregroundBlur_42_148"/>
</filter>
<filter id="filter2_b_42_148" x="5.66016" y="1.62598" width="77.3311" height="80.3657" filterUnits="userSpaceOnUse" color-interpolation-filters="sRGB">
<feFlood flood-opacity="0" result="BackgroundImageFix"/>
<feGaussianBlur in="BackgroundImage" stdDeviation="7.5"/>
<feComposite in2="SourceAlpha" operator="in" result="effect1_backgroundBlur_42_148"/>
<feBlend mode="normal" in="SourceGraphic" in2="effect1_backgroundBlur_42_148" result="shape"/>
</filter>
<filter id="filter3_bd_42_148" x="16.9541" y="12.5142" width="54.7607" height="58.5688" filterUnits="userSpaceOnUse" color-interpolation-filters="sRGB">
<feFlood flood-opacity="0" result="BackgroundImageFix"/>
<feGaussianBlur in="BackgroundImage" stdDeviation="7.5"/>
<feComposite in2="SourceAlpha" operator="in" result="effect1_backgroundBlur_42_148"/>
<feColorMatrix in="SourceAlpha" type="matrix" values="0 0 0 0 0 0 0 0 0 0 0 0 0 0 0 0 0 0 127 0" result="hardAlpha"/>
<feOffset dx="5" dy="5"/>
<feGaussianBlur stdDeviation="5"/>
<feColorMatrix type="matrix" values="0 0 0 0 1 0 0 0 0 0.447059 0 0 0 0 0.368627 0 0 0 0.5 0"/>
<feBlend mode="normal" in2="effect1_backgroundBlur_42_148" result="effect2_dropShadow_42_148"/>
<feBlend mode="normal" in="SourceGraphic" in2="effect2_dropShadow_42_148" result="shape"/>
</filter>
<linearGradient id="paint0_linear_42_148" x1="36.7789" y1="35.8334" x2="1.47323" y2="64.5297" gradientUnits="userSpaceOnUse">
<stop stop-color="#11B5E4"/>
<stop offset="1" stop-color="#035B81"/>
</linearGradient>
<linearGradient id="paint1_linear_42_148" x1="28.8761" y1="23.2606" x2="60.0892" y2="59.4933" gradientUnits="userSpaceOnUse">
<stop stop-color="white" stop-opacity="0.25"/>
<stop offset="1" stop-color="white" stop-opacity="0"/>
</linearGradient>
<linearGradient id="paint2_linear_42_148" x1="25.5447" y1="48.7185" x2="38.4079" y2="73.486" gradientUnits="userSpaceOnUse">
<stop stop-color="white"/>
<stop offset="1" stop-color="white" stop-opacity="0.2"/>
</linearGradient>
<linearGradient id="paint3_linear_42_148" x1="35.8957" y1="30.8425" x2="54.4913" y2="50.8041" gradientUnits="userSpaceOnUse">
<stop stop-color="white" stop-opacity="0.25"/>
<stop offset="1" stop-color="white" stop-opacity="0"/>
</linearGradient>
</defs>
</svg>
