<svg width="61" height="59" viewBox="0 0 61 59" fill="none" xmlns="http://www.w3.org/2000/svg">
<path fill-rule="evenodd" clip-rule="evenodd" d="M4.77793 55.9089C2.15007 55.9089 2.60929e-07 53.6214 2.41921e-07 50.8256L1.21095e-07 33.0534L12.0266 33.0534L12.0266 33.0337L19.2551 33.0337C21.1185 32.9829 22.6952 31.2545 22.6952 29.2212C22.6952 27.137 21.0707 25.4086 19.1117 25.4086L9.55587 25.4086L9.55587 25.4118L6.91424e-08 25.4118L3.45602e-08 20.3252C1.55521e-08 17.5294 2.15007 15.2419 4.77793 15.2419L19.1117 15.2419C22.743 15.2419 25.8486 16.6144 28.3809 19.3594C30.961 22.0536 32.2511 25.3578 32.2511 29.2212C32.2511 33.0337 31.0088 36.3379 28.4765 39.0321C25.9442 41.7263 22.8863 43.1496 19.3029 43.2005L9.55587 43.2005L9.55587 50.8256C9.55587 53.6214 7.4058 55.9089 4.77793 55.9089Z" fill="#02BC6B"/>
<path fill-rule="evenodd" clip-rule="evenodd" d="M38.2737 9.34199C43.5524 14.797 46.2123 21.591 46.2123 29.314C46.2123 36.9073 43.6637 43.6948 38.4665 49.167L31.0876 41.7804C34.3197 38.3773 35.9062 34.28 35.9062 29.314C35.9062 24.3101 34.272 20.2193 30.9623 16.799L38.2737 9.34199Z" fill="#02897A"/>
<path fill-rule="evenodd" clip-rule="evenodd" d="M49.5709 -4.79707e-08C57.174 8.07647 60.9999 18.0907 60.9999 29.5842C60.9999 40.8983 57.3282 50.9062 49.8499 59L42.7285 51.5968C48.299 45.5678 51.0286 38.2553 51.0286 29.5842C51.0286 20.826 48.207 13.5198 42.515 7.47346L49.5709 -4.79707e-08Z" fill="#035B81"/>
<path fill-rule="evenodd" clip-rule="evenodd" d="M0 43.2433L9.55587 43.2433L9.55587 50.8262C9.55587 53.6221 7.4058 55.9096 4.77793 55.9096C2.15007 55.9096 7.05618e-08 53.6221 5.15537e-08 50.8262L0 43.2433Z" fill="#028E37"/>
</svg>
