<svg width="170" height="37" viewBox="0 0 170 37" fill="none" xmlns="http://www.w3.org/2000/svg">
<path d="M65.91 14.72C65.91 15.94 65.63 17.06 65.07 18.08C64.51 19.08 63.65 19.89 62.49 20.51C61.33 21.13 59.89 21.44 58.17 21.44H54.99V29H49.86V7.94H58.17C59.85 7.94 61.27 8.23 62.43 8.81C63.59 9.39 64.46 10.19 65.04 11.21C65.62 12.23 65.91 13.4 65.91 14.72ZM57.78 17.36C58.76 17.36 59.49 17.13 59.97 16.67C60.45 16.21 60.69 15.56 60.69 14.72C60.69 13.88 60.45 13.23 59.97 12.77C59.49 12.31 58.76 12.08 57.78 12.08H54.99V17.36H57.78ZM73.7107 15.05C74.3107 14.13 75.0607 13.41 75.9607 12.89C76.8607 12.35 77.8607 12.08 78.9607 12.08V17.51H77.5507C76.2707 17.51 75.3107 17.79 74.6707 18.35C74.0307 18.89 73.7107 19.85 73.7107 21.23V29H68.5807V12.26H73.7107V15.05ZM89.0327 29.24C87.3927 29.24 85.9127 28.89 84.5927 28.19C83.2927 27.49 82.2627 26.49 81.5027 25.19C80.7627 23.89 80.3927 22.37 80.3927 20.63C80.3927 18.91 80.7727 17.4 81.5327 16.1C82.2927 14.78 83.3327 13.77 84.6527 13.07C85.9727 12.37 87.4527 12.02 89.0927 12.02C90.7327 12.02 92.2127 12.37 93.5327 13.07C94.8527 13.77 95.8927 14.78 96.6527 16.1C97.4127 17.4 97.7927 18.91 97.7927 20.63C97.7927 22.35 97.4027 23.87 96.6227 25.19C95.8627 26.49 94.8127 27.49 93.4727 28.19C92.1527 28.89 90.6727 29.24 89.0327 29.24ZM89.0327 24.8C90.0127 24.8 90.8427 24.44 91.5227 23.72C92.2227 23 92.5727 21.97 92.5727 20.63C92.5727 19.29 92.2327 18.26 91.5527 17.54C90.8927 16.82 90.0727 16.46 89.0927 16.46C88.0927 16.46 87.2627 16.82 86.6027 17.54C85.9427 18.24 85.6127 19.27 85.6127 20.63C85.6127 21.97 85.9327 23 86.5727 23.72C87.2327 24.44 88.0527 24.8 89.0327 24.8ZM99.4943 20.6C99.4943 18.88 99.8143 17.37 100.454 16.07C101.114 14.77 102.004 13.77 103.124 13.07C104.244 12.37 105.494 12.02 106.874 12.02C107.974 12.02 108.974 12.25 109.874 12.71C110.794 13.17 111.514 13.79 112.034 14.57V6.8H117.164V29H112.034V26.6C111.554 27.4 110.864 28.04 109.964 28.52C109.084 29 108.054 29.24 106.874 29.24C105.494 29.24 104.244 28.89 103.124 28.19C102.004 27.47 101.114 26.46 100.454 25.16C99.8143 23.84 99.4943 22.32 99.4943 20.6ZM112.034 20.63C112.034 19.35 111.674 18.34 110.954 17.6C110.254 16.86 109.394 16.49 108.374 16.49C107.354 16.49 106.484 16.86 105.764 17.6C105.064 18.32 104.714 19.32 104.714 20.6C104.714 21.88 105.064 22.9 105.764 23.66C106.484 24.4 107.354 24.77 108.374 24.77C109.394 24.77 110.254 24.4 110.954 23.66C111.674 22.92 112.034 21.91 112.034 20.63ZM137.406 12.26V29H132.276V26.72C131.756 27.46 131.046 28.06 130.146 28.52C129.266 28.96 128.286 29.18 127.206 29.18C125.926 29.18 124.796 28.9 123.816 28.34C122.836 27.76 122.076 26.93 121.536 25.85C120.996 24.77 120.726 23.5 120.726 22.04V12.26H125.826V21.35C125.826 22.47 126.116 23.34 126.696 23.96C127.276 24.58 128.056 24.89 129.036 24.89C130.036 24.89 130.826 24.58 131.406 23.96C131.986 23.34 132.276 22.47 132.276 21.35V12.26H137.406ZM140.07 20.63C140.07 18.89 140.42 17.37 141.12 16.07C141.84 14.77 142.83 13.77 144.09 13.07C145.37 12.37 146.83 12.02 148.47 12.02C150.57 12.02 152.32 12.57 153.72 13.67C155.14 14.77 156.07 16.32 156.51 18.32H151.05C150.59 17.04 149.7 16.4 148.38 16.4C147.44 16.4 146.69 16.77 146.13 17.51C145.57 18.23 145.29 19.27 145.29 20.63C145.29 21.99 145.57 23.04 146.13 23.78C146.69 24.5 147.44 24.86 148.38 24.86C149.7 24.86 150.59 24.22 151.05 22.94H156.51C156.07 24.9 155.14 26.44 153.72 27.56C152.3 28.68 150.55 29.24 148.47 29.24C146.83 29.24 145.37 28.89 144.09 28.19C142.83 27.49 141.84 26.49 141.12 25.19C140.42 23.89 140.07 22.37 140.07 20.63ZM168.585 24.65V29H165.975C164.115 29 162.665 28.55 161.625 27.65C160.585 26.73 160.065 25.24 160.065 23.18V16.52H158.025V12.26H160.065V8.18H165.195V12.26H168.555V16.52H165.195V23.24C165.195 23.74 165.315 24.1 165.555 24.32C165.795 24.54 166.195 24.65 166.755 24.65H168.585Z" fill="#173A56"/>
<path fill-rule="evenodd" clip-rule="evenodd" d="M3.13307 34.4587C1.40988 34.4587 1.60819e-07 33.0488 1.49104e-07 31.3256L7.46349e-08 20.372L7.88626 20.372L7.88626 20.3598L12.6263 20.3598C13.8482 20.3285 14.8821 19.2633 14.8821 18.01C14.8821 16.7255 13.8168 15.6602 12.5323 15.6602L6.26614 15.6602L6.26614 15.6622L4.26148e-08 15.6622L2.13006e-08 12.5272C9.58529e-09 10.804 1.40988 9.3941 3.13307 9.3941L12.5323 9.3941C14.9134 9.3941 16.9499 10.24 18.6104 11.9319C20.3023 13.5924 21.1482 15.6289 21.1482 18.01C21.1482 20.3598 20.3336 22.3963 18.6731 24.0569C17.0126 25.7174 15.0074 26.5947 12.6576 26.626L6.26614 26.626L6.26614 31.3256C6.26614 33.0488 4.85626 34.4587 3.13307 34.4587Z" fill="#02BC6B"/>
<path fill-rule="evenodd" clip-rule="evenodd" d="M25.0973 5.7578C28.5588 9.11993 30.303 13.3073 30.303 18.0672C30.303 22.7473 28.6318 26.9307 25.2238 30.3034L20.3851 25.7508C22.5046 23.6533 23.5449 21.128 23.5449 18.0672C23.5449 14.9832 22.4733 12.4619 20.303 10.3538L25.0973 5.7578Z" fill="#02897A"/>
<path fill-rule="evenodd" clip-rule="evenodd" d="M32.5055 -3.14562e-08C37.4911 4.97781 39.9999 11.1499 39.9999 18.2338C39.9999 25.2071 37.5922 31.3753 32.6884 36.3638L28.0186 31.8009C31.6715 28.085 33.4614 23.5781 33.4614 18.2338C33.4614 12.8358 31.6111 8.33276 27.8787 4.60616L32.5055 -3.14562e-08Z" fill="#035B81"/>
<path fill-rule="evenodd" clip-rule="evenodd" d="M-1.14326e-05 26.6524L6.26613 26.6524L6.26613 31.326C6.26613 33.0492 4.85625 34.4591 3.13306 34.4591C1.40987 34.4591 -1.13891e-05 33.0492 -1.14009e-05 31.326L-1.14326e-05 26.6524Z" fill="#028E37"/>
</svg>
